<svg width="24" height="32" viewBox="0 0 24 32" fill="none" xmlns="http://www.w3.org/2000/svg">
<g id="Group">
<path id="Union" fill-rule="evenodd" clip-rule="evenodd" d="M0.917847 6.0466C0.917847 2.74005 3.59833 0.0595703 6.90489 0.0595703H17.1779C20.4845 0.0595703 23.165 2.74005 23.165 6.0466C23.165 8.14034 22.0902 9.98305 20.4623 11.0531C22.0902 12.1232 23.165 13.966 23.165 16.0597C23.165 19.3662 20.4845 22.0467 17.1779 22.0467H17.0479C15.4978 22.0467 14.0852 21.4576 13.022 20.4911V26.0075C13.022 29.3582 10.2714 32.0596 6.93719 32.0596C3.63885 32.0596 0.917847 29.3873 0.917847 26.0725C0.917847 23.9789 1.99251 22.1362 3.62031 21.0661C1.99251 19.996 0.917847 18.1533 0.917847 16.0597C0.917847 13.966 1.99259 12.1232 3.6205 11.0531C1.99259 9.98305 0.917847 8.14034 0.917847 6.0466ZM11.0609 12.0338H6.90489C4.68142 12.0338 2.87896 13.8362 2.87896 16.0597C2.87896 18.2752 4.66858 20.0727 6.8811 20.0856C6.88902 20.0855 6.89695 20.0855 6.90489 20.0855H11.0609V12.0338ZM13.022 16.0597C13.022 18.2832 14.8244 20.0856 17.0479 20.0856H17.1779C19.4014 20.0856 21.2039 18.2832 21.2039 16.0597C21.2039 13.8362 19.4014 12.0338 17.1779 12.0338H17.0479C14.8244 12.0338 13.022 13.8362 13.022 16.0597ZM6.89367 22.0467C6.88948 22.0467 6.88528 22.0467 6.8811 22.0467C4.66858 22.0595 2.87896 23.857 2.87896 26.0725C2.87896 28.2878 4.7055 30.0985 6.93719 30.0985C9.20477 30.0985 11.0609 28.2587 11.0609 26.0075V22.0467H6.90489C6.90115 22.0467 6.89741 22.0467 6.89367 22.0467ZM6.90489 2.02068H11.0609V10.0725H6.90489C4.68142 10.0725 2.87896 8.27006 2.87896 6.0466C2.87896 3.82315 4.68142 2.02068 6.90489 2.02068ZM13.022 10.0725V2.02068H17.1779C19.4014 2.02068 21.2039 3.82315 21.2039 6.0466C21.2039 8.27006 19.4014 10.0725 17.1779 10.0725H13.022Z" fill="#19535F"/>
</g>
</svg>
