<svg width="13" height="16" viewBox="0 0 13 16" fill="none" xmlns="http://www.w3.org/2000/svg">
<path id="Vector" d="M6.4 8C6.84 8 7.21667 7.84333 7.53 7.53C7.84333 7.21667 8 6.84 8 6.4C8 5.96 7.84333 5.58333 7.53 5.27C7.21667 4.95667 6.84 4.8 6.4 4.8C5.96 4.8 5.58333 4.95667 5.27 5.27C4.95667 5.58333 4.8 5.96 4.8 6.4C4.8 6.84 4.95667 7.21667 5.27 7.53C5.58333 7.84333 5.96 8 6.4 8ZM6.4 13.88C8.02667 12.3867 9.23333 11.03 10.02 9.81C10.8067 8.59 11.2 7.50667 11.2 6.56C11.2 5.10667 10.7367 3.91667 9.81 2.99C8.88333 2.06333 7.74667 1.6 6.4 1.6C5.05333 1.6 3.91667 2.06333 2.99 2.99C2.06333 3.91667 1.6 5.10667 1.6 6.56C1.6 7.50667 1.99333 8.59 2.78 9.81C3.56667 11.03 4.77333 12.3867 6.4 13.88ZM6.4 16C4.25333 14.1733 2.65 12.4767 1.59 10.91C0.53 9.34333 0 7.89333 0 6.56C0 4.56 0.643333 2.96667 1.93 1.78C3.21667 0.593333 4.70667 0 6.4 0C8.09333 0 9.58333 0.593333 10.87 1.78C12.1567 2.96667 12.8 4.56 12.8 6.56C12.8 7.89333 12.27 9.34333 11.21 10.91C10.15 12.4767 8.54667 14.1733 6.4 16Z" fill="#D7C9AA"/>
</svg>
